# xmcd
#
# Track frame offsets: 
#        150
#        15118
#        36535
#        50607
#        63905
#        77651
#        92178
#        112811
#        124923
#        143000
#        159537
#        169949
#        188983
#        209665
#        222168
#        237823
#
# Disc length: 3448 seconds
#
# Revision: 0
# Processed by: cddbd v1.5.2PL0 Copyright (c) Steve Scherf et al.
# Submitted via: ExactAudioCopy v1.0b4
#
DISCID=dc0d7610
DTITLE=Left Lane Cruiser - Gettin' Down On It
DYEAR=2006
DGENRE=Blues Rock
TTITLE0=Big Mama
TTITLE1=Riverwalk
TTITLE2=That Ass (Live)
TTITLE3=Set Me Free
TTITLE4=Mountain Top (Featuring Tyler)
TTITLE5=Pork 'n' Beans
TTITLE6=Down the Road
TTITLE7=Truck Song
TTITLE8=KFD (Live)
TTITLE9=Shotgun Wedding
TTITLE10=Heart and Soul
TTITLE11=Cheyenne
TTITLE12=Ain't Got Time
TTITLE13=Board Shakers
TTITLE14=What You Want (Featuring Tyler)
TTITLE15=My Country 
EXTD=
EXTT0=
EXTT1=
EXTT2=
EXTT3=
EXTT4=
EXTT5=
EXTT6=
EXTT7=
EXTT8=
EXTT9=
EXTT10=
EXTT11=
EXTT12=
EXTT13=
EXTT14=
EXTT15=
PLAYORDER=
